<svg xmlns="http://www.w3.org/2000/svg" xmlns:xlink="http://www.w3.org/1999/xlink" width="500" zoomAndPan="magnify" viewBox="0 0 375 187.499995" height="250" preserveAspectRatio="xMidYMid meet" version="1.0"><defs><g/><clipPath id="51e5c2d6ef"><path d="M 33 51 L 138.289062 51 L 138.289062 137.367188 L 33 137.367188 Z M 33 51 " clip-rule="nonzero"/></clipPath></defs><g clip-path="url(#51e5c2d6ef)"><path fill="#f63b3b" d="M 81.488281 125.640625 C 81.820312 126.003906 82.078125 126.414062 82.253906 126.875 C 82.429688 127.335938 82.515625 127.8125 82.511719 128.304688 C 82.507812 128.800781 82.410156 129.273438 82.222656 129.730469 C 82.035156 130.1875 81.773438 130.59375 81.429688 130.949219 C 80.183594 132.332031 78.863281 133.640625 77.472656 134.875 C 76.800781 135.351562 76.078125 135.730469 75.308594 136.007812 C 74.90625 136.042969 74.511719 136.019531 74.117188 135.9375 C 73.726562 135.855469 73.355469 135.71875 73 135.523438 C 72.648438 135.332031 72.332031 135.09375 72.050781 134.804688 C 71.769531 134.519531 71.535156 134.199219 71.347656 133.84375 C 71.164062 133.53125 71.027344 133.199219 70.945312 132.847656 C 70.863281 132.492188 70.835938 132.136719 70.867188 131.773438 C 70.894531 131.414062 70.980469 131.0625 71.117188 130.730469 C 71.257812 130.394531 71.445312 130.089844 71.679688 129.8125 C 73.089844 128.167969 74.613281 126.640625 76.246094 125.21875 C 76.621094 124.898438 77.042969 124.660156 77.511719 124.507812 C 77.980469 124.355469 78.460938 124.296875 78.953125 124.339844 C 79.445312 124.378906 79.910156 124.511719 80.351562 124.734375 C 80.789062 124.960938 81.167969 125.261719 81.488281 125.640625 Z M 56.179688 100.679688 C 55.839844 99.949219 55.335938 99.359375 54.664062 98.917969 C 53.988281 98.476562 53.25 98.246094 52.445312 98.222656 C 51.605469 98.511719 50.816406 98.902344 50.082031 99.398438 C 48.621094 100.6875 47.246094 102.0625 45.953125 103.519531 C 45.777344 103.699219 45.625 103.894531 45.488281 104.105469 C 45.355469 104.316406 45.242188 104.539062 45.152344 104.769531 C 45.0625 105.003906 44.996094 105.246094 44.953125 105.492188 C 44.910156 105.738281 44.894531 105.988281 44.898438 106.238281 C 44.90625 106.488281 44.9375 106.734375 44.996094 106.980469 C 45.050781 107.222656 45.132812 107.457031 45.234375 107.6875 C 45.339844 107.914062 45.464844 108.128906 45.613281 108.332031 C 45.757812 108.535156 45.921875 108.722656 46.105469 108.890625 C 46.453125 109.242188 46.851562 109.519531 47.304688 109.714844 C 47.757812 109.910156 48.230469 110.015625 48.726562 110.027344 C 49.21875 110.039062 49.695312 109.957031 50.15625 109.785156 C 50.621094 109.609375 51.03125 109.351562 51.394531 109.015625 C 52.867188 107.679688 54.273438 106.269531 55.601562 104.789062 C 55.863281 104.523438 56.074219 104.222656 56.238281 103.886719 C 56.40625 103.550781 56.511719 103.199219 56.566406 102.828125 C 56.617188 102.457031 56.609375 102.089844 56.542969 101.722656 C 56.480469 101.355469 56.359375 101.007812 56.179688 100.675781 Z M 63.972656 108.105469 C 63.601562 107.765625 63.179688 107.503906 62.710938 107.324219 C 62.242188 107.144531 61.757812 107.058594 61.253906 107.0625 C 60.75 107.070312 60.265625 107.167969 59.800781 107.359375 C 59.335938 107.546875 58.921875 107.816406 58.558594 108.167969 C 57.1875 109.421875 55.882812 110.742188 54.652344 112.136719 C 54.199219 112.769531 53.84375 113.449219 53.582031 114.183594 C 53.535156 114.59375 53.550781 115.003906 53.628906 115.410156 C 53.707031 115.816406 53.84375 116.199219 54.042969 116.566406 C 54.242188 116.929688 54.488281 117.253906 54.785156 117.539062 C 55.085938 117.828125 55.417969 118.0625 55.789062 118.246094 C 56.125 118.429688 56.480469 118.554688 56.855469 118.628906 C 57.234375 118.699219 57.609375 118.710938 57.992188 118.660156 C 58.371094 118.613281 58.734375 118.507812 59.078125 118.34375 C 59.425781 118.179688 59.738281 117.964844 60.015625 117.703125 C 61.457031 116.394531 62.84375 115.027344 64.152344 113.589844 C 64.332031 113.40625 64.488281 113.207031 64.628906 112.992188 C 64.765625 112.777344 64.882812 112.546875 64.976562 112.308594 C 65.070312 112.070312 65.136719 111.824219 65.179688 111.570312 C 65.222656 111.320312 65.242188 111.0625 65.230469 110.808594 C 65.222656 110.550781 65.191406 110.296875 65.128906 110.046875 C 65.070312 109.800781 64.988281 109.558594 64.878906 109.324219 C 64.769531 109.09375 64.640625 108.875 64.488281 108.667969 C 64.332031 108.460938 64.164062 108.273438 63.972656 108.101562 Z M 73.90625 120.160156 C 73.753906 118.03125 73.078125 116.757812 71.535156 116.058594 C 71.179688 115.886719 70.808594 115.773438 70.417969 115.71875 C 70.03125 115.664062 69.640625 115.671875 69.253906 115.742188 C 68.867188 115.8125 68.5 115.9375 68.152344 116.125 C 67.808594 116.3125 67.5 116.550781 67.226562 116.835938 C 65.925781 118.035156 64.683594 119.308594 63.460938 120.589844 C 63.273438 120.769531 63.101562 120.964844 62.953125 121.179688 C 62.804688 121.390625 62.675781 121.617188 62.570312 121.855469 C 62.464844 122.097656 62.386719 122.34375 62.328125 122.597656 C 62.273438 122.851562 62.246094 123.109375 62.242188 123.371094 C 62.238281 123.632812 62.257812 123.890625 62.304688 124.148438 C 62.355469 124.40625 62.425781 124.652344 62.523438 124.894531 C 62.621094 125.136719 62.742188 125.367188 62.886719 125.585938 C 63.03125 125.800781 63.195312 126.003906 63.378906 126.1875 C 63.5625 126.371094 63.765625 126.535156 63.980469 126.679688 C 64.199219 126.824219 64.429688 126.945312 64.667969 127.042969 C 64.910156 127.140625 65.160156 127.214844 65.414062 127.261719 C 65.671875 127.308594 65.929688 127.332031 66.191406 127.328125 C 66.449219 127.328125 66.707031 127.296875 66.964844 127.246094 C 67.21875 127.191406 67.464844 127.109375 67.703125 127.007812 C 67.941406 126.902344 68.167969 126.777344 68.382812 126.628906 C 68.597656 126.480469 68.796875 126.3125 68.976562 126.125 C 70.257812 124.960938 71.476562 123.730469 72.625 122.4375 C 73.140625 121.726562 73.566406 120.964844 73.90625 120.15625 Z M 132.253906 63.929688 C 131.476562 62.800781 130.613281 61.742188 129.667969 60.753906 C 128.726562 59.738281 127.714844 58.796875 126.628906 57.9375 C 125.214844 56.839844 123.691406 55.925781 122.0625 55.1875 C 117.617188 53.101562 112.941406 51.988281 108.035156 51.847656 C 103.027344 51.972656 98.324219 53.242188 93.929688 55.65625 C 90.445312 57.730469 87.351562 60.28125 84.652344 63.3125 C 80.566406 67.4375 76.425781 71.503906 72.351562 75.628906 C 72.074219 75.886719 71.832031 76.167969 71.621094 76.480469 C 71.40625 76.789062 71.230469 77.121094 71.09375 77.46875 C 70.953125 77.820312 70.855469 78.179688 70.796875 78.550781 C 70.738281 78.925781 70.722656 79.296875 70.746094 79.675781 C 70.769531 80.050781 70.835938 80.417969 70.941406 80.777344 C 71.050781 81.140625 71.195312 81.484375 71.378906 81.8125 C 71.558594 82.140625 71.777344 82.445312 72.027344 82.726562 C 72.28125 83.003906 72.558594 83.253906 72.863281 83.472656 C 73.339844 83.824219 73.859375 84.082031 74.425781 84.246094 C 74.992188 84.414062 75.570312 84.476562 76.160156 84.4375 C 76.75 84.398438 77.3125 84.257812 77.851562 84.015625 C 78.390625 83.777344 78.875 83.449219 79.296875 83.039062 C 81.203125 81.242188 90.816406 71.851562 93.578125 69.066406 C 108.070312 83.46875 118.679688 94.101562 121.234375 96.730469 C 123.011719 98.554688 124.644531 100.261719 124.644531 100.261719 C 125.789062 101.464844 126.953125 102.699219 128.167969 103.972656 C 128.992188 102.929688 129.90625 101.886719 130.800781 100.804688 C 131.699219 99.71875 132.535156 98.582031 133.308594 97.402344 C 135.972656 93.144531 137.535156 88.511719 137.996094 83.503906 C 138.160156 80.800781 137.957031 78.128906 137.378906 75.484375 C 136.800781 72.839844 135.875 70.324219 134.601562 67.941406 C 133.90625 66.550781 133.125 65.214844 132.253906 63.929688 Z M 93.570312 75.242188 C 89.5625 79.152344 83.351562 85.253906 81.804688 86.621094 C 81.359375 86.992188 80.882812 87.320312 80.375 87.605469 C 79.871094 87.886719 79.34375 88.121094 78.792969 88.308594 C 78.246094 88.496094 77.683594 88.628906 77.109375 88.714844 C 76.535156 88.796875 75.960938 88.824219 75.382812 88.800781 C 74.800781 88.777344 74.230469 88.703125 73.664062 88.574219 C 73.101562 88.445312 72.550781 88.265625 72.019531 88.035156 C 71.488281 87.804688 70.980469 87.527344 70.5 87.203125 C 70.019531 86.878906 69.570312 86.511719 69.15625 86.105469 C 68.742188 85.699219 68.367188 85.257812 68.03125 84.785156 C 67.699219 84.308594 67.414062 83.804688 67.171875 83.273438 C 66.933594 82.746094 66.746094 82.199219 66.605469 81.632812 C 66.46875 81.070312 66.382812 80.496094 66.351562 79.914062 C 66.320312 79.335938 66.34375 78.753906 66.417969 78.179688 C 66.496094 77.601562 66.625 77.039062 66.804688 76.484375 C 66.984375 75.933594 67.214844 75.402344 67.496094 74.890625 C 67.773438 74.382812 68.097656 73.902344 68.46875 73.453125 C 69.6875 71.996094 71.078125 70.679688 72.425781 69.328125 C 75.773438 65.953125 79.144531 62.589844 82.585938 59.148438 C 81.648438 58.300781 80.660156 57.519531 79.617188 56.804688 C 78.578125 56.089844 77.496094 55.445312 76.367188 54.871094 C 75.242188 54.300781 74.085938 53.804688 72.894531 53.386719 C 71.703125 52.96875 70.488281 52.632812 69.253906 52.375 C 68.019531 52.117188 66.769531 51.945312 65.511719 51.851562 C 64.253906 51.761719 62.996094 51.753906 61.734375 51.828125 C 60.476562 51.902344 59.226562 52.0625 57.988281 52.300781 C 56.75 52.542969 55.53125 52.863281 54.335938 53.265625 C 42.273438 57.378906 35.28125 66.019531 33.859375 78.746094 C 33.617188 80.792969 33.597656 82.84375 33.804688 84.894531 C 34.011719 86.945312 34.441406 88.949219 35.089844 90.902344 C 35.738281 92.859375 36.59375 94.722656 37.652344 96.488281 C 38.707031 98.257812 39.945312 99.886719 41.363281 101.378906 C 43.324219 99.582031 45.121094 97.890625 46.960938 96.253906 C 47.195312 96.027344 47.445312 95.816406 47.707031 95.617188 C 47.972656 95.421875 48.246094 95.242188 48.527344 95.074219 C 48.8125 94.910156 49.105469 94.765625 49.40625 94.636719 C 49.707031 94.507812 50.015625 94.398438 50.332031 94.304688 C 50.644531 94.214844 50.964844 94.140625 51.289062 94.085938 C 51.613281 94.035156 51.9375 94 52.265625 93.984375 C 52.59375 93.96875 52.917969 93.976562 53.246094 94 C 53.574219 94.023438 53.898438 94.070312 54.21875 94.132812 C 54.539062 94.199219 54.859375 94.28125 55.167969 94.382812 C 55.480469 94.484375 55.785156 94.605469 56.082031 94.742188 C 56.378906 94.882812 56.667969 95.035156 56.945312 95.210938 C 57.226562 95.382812 57.492188 95.570312 57.75 95.777344 C 58.003906 95.984375 58.25 96.203125 58.476562 96.4375 C 58.707031 96.671875 58.921875 96.917969 59.125 97.179688 C 59.324219 97.4375 59.507812 97.710938 59.675781 97.992188 C 59.84375 98.277344 59.996094 98.566406 60.128906 98.867188 C 60.585938 100.074219 60.941406 101.308594 61.1875 102.578125 C 66.390625 103.035156 69.222656 105.957031 69.6875 111.21875 C 75.023438 111.703125 77.90625 114.59375 78.332031 119.839844 C 78.484375 119.890625 78.636719 119.925781 78.796875 119.949219 C 79.113281 119.957031 79.425781 119.984375 79.742188 120.03125 C 80.054688 120.074219 80.363281 120.136719 80.671875 120.21875 C 80.976562 120.296875 81.277344 120.394531 81.574219 120.511719 C 81.867188 120.625 82.15625 120.757812 82.4375 120.902344 C 82.71875 121.050781 82.988281 121.214844 83.25 121.394531 C 83.511719 121.570312 83.765625 121.765625 84.003906 121.972656 C 84.246094 122.179688 84.472656 122.398438 84.6875 122.632812 C 84.902344 122.867188 85.105469 123.109375 85.289062 123.367188 C 85.476562 123.625 85.648438 123.890625 85.808594 124.164062 C 85.964844 124.441406 86.105469 124.726562 86.230469 125.015625 C 86.355469 125.308594 86.460938 125.609375 86.554688 125.910156 C 86.644531 126.214844 86.71875 126.523438 86.773438 126.835938 C 86.828125 127.148438 86.867188 127.464844 86.886719 127.78125 C 86.90625 128.097656 86.910156 128.417969 86.894531 128.734375 C 86.878906 129.050781 86.84375 129.367188 86.792969 129.679688 C 86.742188 129.992188 86.671875 130.304688 86.585938 130.609375 C 86.503906 130.992188 86.578125 131.339844 86.816406 131.648438 C 88.355469 133.230469 89.890625 134.828125 91.542969 136.289062 C 91.875 136.554688 92.246094 136.757812 92.648438 136.894531 C 93.050781 137.035156 93.464844 137.101562 93.890625 137.097656 C 94.316406 137.09375 94.730469 137.019531 95.128906 136.871094 C 95.53125 136.726562 95.894531 136.515625 96.222656 136.242188 C 96.457031 136.0625 96.667969 135.859375 96.855469 135.632812 C 97.042969 135.40625 97.203125 135.160156 97.335938 134.898438 C 97.46875 134.636719 97.566406 134.359375 97.640625 134.074219 C 97.710938 133.789062 97.746094 133.496094 97.753906 133.203125 C 97.757812 132.90625 97.730469 132.617188 97.667969 132.328125 C 97.609375 132.039062 97.515625 131.761719 97.394531 131.492188 C 97.269531 131.226562 97.121094 130.976562 96.941406 130.742188 C 96.761719 130.507812 96.558594 130.296875 96.332031 130.109375 C 92.449219 126.210938 88.546875 122.335938 84.667969 118.433594 C 84.496094 118.261719 84.339844 118.070312 84.203125 117.867188 L 77.453125 111.097656 C 77.261719 110.898438 77.113281 110.667969 77.011719 110.410156 C 76.90625 110.148438 76.855469 109.878906 76.859375 109.601562 C 76.863281 109.324219 76.917969 109.054688 77.023438 108.796875 C 77.132812 108.539062 77.285156 108.3125 77.480469 108.117188 C 77.675781 107.917969 77.902344 107.765625 78.160156 107.65625 C 78.417969 107.550781 78.683594 107.496094 78.960938 107.492188 C 79.238281 107.492188 79.507812 107.539062 79.765625 107.644531 C 80.023438 107.746094 80.253906 107.894531 80.453125 108.089844 L 87.238281 114.898438 C 87.421875 115.027344 87.597656 115.167969 87.757812 115.324219 C 88.980469 116.488281 90.207031 117.644531 91.40625 118.832031 C 94.207031 121.609375 96.964844 124.425781 99.792969 127.167969 C 99.980469 127.367188 100.1875 127.539062 100.414062 127.691406 C 100.640625 127.84375 100.878906 127.96875 101.132812 128.070312 C 101.382812 128.171875 101.644531 128.246094 101.910156 128.292969 C 102.179688 128.339844 102.449219 128.359375 102.71875 128.351562 C 102.992188 128.339844 103.257812 128.300781 103.523438 128.234375 C 103.785156 128.167969 104.039062 128.078125 104.285156 127.957031 C 104.527344 127.835938 104.757812 127.691406 104.972656 127.523438 C 105.183594 127.355469 105.378906 127.167969 105.554688 126.960938 C 105.878906 126.558594 106.117188 126.113281 106.269531 125.621094 C 106.421875 125.128906 106.480469 124.625 106.4375 124.113281 C 106.398438 123.597656 106.261719 123.109375 106.035156 122.648438 C 105.804688 122.1875 105.5 121.785156 105.113281 121.441406 C 101.15625 117.441406 97.15625 113.472656 93.175781 109.484375 C 91.28125 107.585938 89.359375 105.707031 87.511719 103.757812 C 87.300781 103.5625 87.136719 103.335938 87.023438 103.074219 C 86.90625 102.808594 86.847656 102.535156 86.84375 102.246094 C 86.84375 101.960938 86.898438 101.683594 87.007812 101.417969 C 87.121094 101.15625 87.28125 100.925781 87.488281 100.726562 C 87.691406 100.523438 87.921875 100.367188 88.1875 100.253906 C 88.449219 100.144531 88.722656 100.085938 89.007812 100.082031 C 89.292969 100.074219 89.570312 100.125 89.835938 100.226562 C 90.101562 100.332031 90.339844 100.480469 90.546875 100.675781 C 90.8125 100.898438 91.0625 101.132812 91.296875 101.386719 C 96.9375 107.019531 102.5625 112.664062 108.234375 118.261719 C 108.851562 118.875 109.578125 119.300781 110.414062 119.539062 C 110.820312 119.640625 111.226562 119.675781 111.640625 119.644531 C 112.054688 119.609375 112.453125 119.511719 112.835938 119.34375 C 113.21875 119.179688 113.5625 118.953125 113.867188 118.671875 C 114.175781 118.390625 114.429688 118.070312 114.628906 117.703125 C 114.839844 117.332031 114.984375 116.9375 115.066406 116.519531 C 115.148438 116.097656 115.160156 115.679688 115.101562 115.253906 C 115.042969 114.832031 114.917969 114.429688 114.730469 114.046875 C 114.539062 113.664062 114.292969 113.324219 113.992188 113.023438 C 109.671875 108.648438 105.316406 104.308594 100.96875 99.957031 C 99.414062 98.394531 97.820312 96.859375 96.292969 95.265625 C 96.066406 95.070312 95.886719 94.839844 95.753906 94.574219 C 95.621094 94.304688 95.546875 94.023438 95.527344 93.726562 C 95.507812 93.425781 95.550781 93.136719 95.648438 92.855469 C 95.746094 92.574219 95.898438 92.320312 96.097656 92.101562 C 96.316406 91.882812 96.566406 91.714844 96.851562 91.601562 C 97.132812 91.484375 97.429688 91.425781 97.738281 91.429688 C 98.046875 91.433594 98.339844 91.496094 98.621094 91.617188 C 98.90625 91.738281 99.152344 91.910156 99.367188 92.132812 C 99.5625 92.300781 99.730469 92.503906 99.914062 92.6875 C 105.515625 98.289062 111.125 103.890625 116.734375 109.492188 C 117.003906 109.804688 117.3125 110.074219 117.660156 110.296875 C 118.007812 110.519531 118.378906 110.691406 118.773438 110.808594 C 119.171875 110.921875 119.574219 110.980469 119.988281 110.976562 C 120.398438 110.976562 120.804688 110.917969 121.199219 110.796875 L 121.308594 110.761719 C 121.625 110.632812 121.921875 110.464844 122.195312 110.257812 C 122.46875 110.054688 122.710938 109.816406 122.925781 109.546875 C 123.136719 109.277344 123.3125 108.988281 123.449219 108.671875 C 123.585938 108.359375 123.679688 108.03125 123.730469 107.691406 C 123.78125 107.351562 123.789062 107.011719 123.753906 106.671875 C 123.71875 106.332031 123.640625 106 123.519531 105.679688 C 123.394531 105.359375 123.234375 105.058594 123.035156 104.78125 C 122.835938 104.503906 122.605469 104.253906 122.339844 104.035156 C 115.996094 97.667969 101.671875 83.324219 93.570312 75.242188 Z M 93.570312 75.242188 " fill-opacity="1" fill-rule="nonzero"/></g><g fill="#f63b3b" fill-opacity="1"><g transform="translate(145.643342, 105.094733)"><g><path d="M 22.71875 -7.734375 C 24.019531 -7.734375 25.285156 -7.929688 26.515625 -8.328125 C 27.742188 -8.722656 28.648438 -9.101562 29.234375 -9.46875 L 30.09375 -10.0625 L 33.734375 -2.78125 C 33.617188 -2.6875 33.453125 -2.5625 33.234375 -2.40625 C 33.023438 -2.257812 32.53125 -1.976562 31.75 -1.5625 C 30.976562 -1.15625 30.148438 -0.800781 29.265625 -0.5 C 28.390625 -0.195312 27.238281 0.0703125 25.8125 0.3125 C 24.382812 0.5625 22.914062 0.6875 21.40625 0.6875 C 17.90625 0.6875 14.59375 -0.171875 11.46875 -1.890625 C 8.34375 -3.609375 5.820312 -5.96875 3.90625 -8.96875 C 2 -11.976562 1.046875 -15.226562 1.046875 -18.71875 C 1.046875 -21.351562 1.609375 -23.882812 2.734375 -26.3125 C 3.859375 -28.738281 5.351562 -30.816406 7.21875 -32.546875 C 9.082031 -34.285156 11.257812 -35.671875 13.75 -36.703125 C 16.238281 -37.734375 18.789062 -38.25 21.40625 -38.25 C 23.832031 -38.25 26.066406 -37.957031 28.109375 -37.375 C 30.160156 -36.800781 31.613281 -36.226562 32.46875 -35.65625 L 33.734375 -34.78125 L 30.09375 -27.5 C 29.882812 -27.6875 29.566406 -27.90625 29.140625 -28.15625 C 28.710938 -28.414062 27.859375 -28.757812 26.578125 -29.1875 C 25.304688 -29.613281 24.019531 -29.828125 22.71875 -29.828125 C 20.65625 -29.828125 18.800781 -29.488281 17.15625 -28.8125 C 15.519531 -28.144531 14.222656 -27.265625 13.265625 -26.171875 C 12.316406 -25.085938 11.585938 -23.914062 11.078125 -22.65625 C 10.578125 -21.394531 10.328125 -20.109375 10.328125 -18.796875 C 10.328125 -15.953125 11.394531 -13.394531 13.53125 -11.125 C 15.675781 -8.863281 18.738281 -7.734375 22.71875 -7.734375 Z M 22.71875 -7.734375 "/></g></g></g><g fill="#f63b3b" fill-opacity="1"><g transform="translate(179.931034, 105.094733)"><g><path d="M 4.328125 -2.890625 C 2.140625 -5.273438 1.046875 -8.195312 1.046875 -11.65625 C 1.046875 -15.113281 2.140625 -18.039062 4.328125 -20.4375 C 6.515625 -22.84375 9.289062 -24.046875 12.65625 -24.046875 C 15.75 -24.046875 18.300781 -23.070312 20.3125 -21.125 L 20.3125 -23.359375 L 28.359375 -23.359375 L 28.359375 0 L 20.390625 0 L 20.390625 -2.640625 L 20.3125 -2.640625 C 18.300781 -0.421875 15.75 0.6875 12.65625 0.6875 C 9.289062 0.6875 6.515625 -0.503906 4.328125 -2.890625 Z M 11.171875 -15.609375 C 10.128906 -14.578125 9.609375 -13.257812 9.609375 -11.65625 C 9.609375 -10.050781 10.109375 -8.738281 11.109375 -7.71875 C 12.109375 -6.695312 13.429688 -6.1875 15.078125 -6.1875 C 16.648438 -6.1875 17.941406 -6.703125 18.953125 -7.734375 C 19.972656 -8.765625 20.484375 -10.070312 20.484375 -11.65625 C 20.484375 -13.257812 19.957031 -14.578125 18.90625 -15.609375 C 17.863281 -16.648438 16.585938 -17.171875 15.078125 -17.171875 C 13.523438 -17.171875 12.222656 -16.648438 11.171875 -15.609375 Z M 11.171875 -15.609375 "/></g></g></g><g fill="#f63b3b" fill-opacity="1"><g transform="translate(211.031291, 105.094733)"><g><path d="M 2.734375 0 L 2.734375 -23.359375 L 10.796875 -23.359375 L 10.796875 -19.984375 L 10.875 -19.984375 C 10.9375 -20.109375 11.035156 -20.257812 11.171875 -20.4375 C 11.316406 -20.625 11.613281 -20.941406 12.0625 -21.390625 C 12.519531 -21.847656 13.003906 -22.257812 13.515625 -22.625 C 14.035156 -22.988281 14.703125 -23.316406 15.515625 -23.609375 C 16.335938 -23.898438 17.175781 -24.046875 18.03125 -24.046875 C 18.90625 -24.046875 19.769531 -23.921875 20.625 -23.671875 C 21.476562 -23.429688 22.101562 -23.191406 22.5 -22.953125 L 23.125 -22.578125 L 19.765625 -15.75 C 18.765625 -16.601562 17.367188 -17.03125 15.578125 -17.03125 C 14.597656 -17.03125 13.757812 -16.816406 13.0625 -16.390625 C 12.363281 -15.960938 11.867188 -15.445312 11.578125 -14.84375 C 11.296875 -14.238281 11.09375 -13.722656 10.96875 -13.296875 C 10.851562 -12.867188 10.796875 -12.535156 10.796875 -12.296875 L 10.796875 0 Z M 2.734375 0 "/></g></g></g><g fill="#f63b3b" fill-opacity="1"><g transform="translate(233.707609, 105.094733)"><g><path d="M 26.359375 -10.5625 L 9.421875 -10.5625 C 9.421875 -8.925781 9.953125 -7.710938 11.015625 -6.921875 C 12.078125 -6.128906 13.234375 -5.734375 14.484375 -5.734375 C 15.785156 -5.734375 16.816406 -5.90625 17.578125 -6.25 C 18.335938 -6.601562 19.203125 -7.296875 20.171875 -8.328125 L 26 -5.421875 C 23.570312 -1.347656 19.535156 0.6875 13.890625 0.6875 C 10.367188 0.6875 7.347656 -0.519531 4.828125 -2.9375 C 2.304688 -5.351562 1.046875 -8.257812 1.046875 -11.65625 C 1.046875 -15.050781 2.304688 -17.960938 4.828125 -20.390625 C 7.347656 -22.828125 10.367188 -24.046875 13.890625 -24.046875 C 17.585938 -24.046875 20.597656 -22.972656 22.921875 -20.828125 C 25.242188 -18.691406 26.40625 -15.632812 26.40625 -11.65625 C 26.40625 -11.113281 26.390625 -10.75 26.359375 -10.5625 Z M 9.65625 -15.03125 L 18.53125 -15.03125 C 18.351562 -16.238281 17.875 -17.164062 17.09375 -17.8125 C 16.320312 -18.46875 15.328125 -18.796875 14.109375 -18.796875 C 12.773438 -18.796875 11.710938 -18.445312 10.921875 -17.75 C 10.140625 -17.050781 9.71875 -16.144531 9.65625 -15.03125 Z M 9.65625 -15.03125 "/></g></g></g><g fill="#f63b3b" fill-opacity="1"><g transform="translate(261.165084, 105.094733)"><g/></g></g><g fill="#f63b3b" fill-opacity="1"><g transform="translate(273.596084, 105.094733)"><g><path d="M 21.8125 -37.5625 L 36.96875 0 L 27.78125 0 L 25 -7.515625 L 10.703125 -7.515625 L 7.921875 0 L -1.28125 0 L 13.890625 -37.5625 Z M 22.078125 -15.03125 L 17.890625 -25.953125 L 17.796875 -25.953125 L 13.609375 -15.03125 Z M 22.078125 -15.03125 "/></g></g></g><g fill="#f63b3b" fill-opacity="1"><g transform="translate(309.295347, 105.094733)"><g><path d="M 2.734375 0 L 2.734375 -39.15625 L 10.796875 -39.15625 L 10.796875 0 Z M 2.734375 0 "/></g></g></g><g fill="#f63b3b" fill-opacity="1"><g transform="translate(322.819181, 105.094733)"><g><path d="M 2.734375 0 L 2.734375 -39.15625 L 10.796875 -39.15625 L 10.796875 0 Z M 2.734375 0 "/></g></g></g></svg>